<?xml version="1.0" encoding="utf-8"?>
<!-- Generator: Adobe Illustrator 19.0.0, SVG Export Plug-In . SVG Version: 6.00 Build 0)  -->
<!DOCTYPE svg PUBLIC "-//W3C//DTD SVG 1.1//EN" "http://www.w3.org/Graphics/SVG/1.1/DTD/svg11.dtd">
<svg version="1.1" id="Layer_1" xmlns="http://www.w3.org/2000/svg" xmlns:xlink="http://www.w3.org/1999/xlink" x="0px" y="0px"
	 width="70px" height="70px" viewBox="0 0 70 70" enable-background="new 0 0 70 70" xml:space="preserve">
<g>
	<path fill="#FFFFFF" d="M69,1c-0.6-0.6-1.4-1-2.2-1H3.1C2.3,0,1.6,0.3,1,1C0.3,1.6,0,2.3,0,3.1v63.7c0,0.8,0.3,1.5,1,2.2
		c0.6,0.6,1.4,1,2.2,1h35.2V40.5H31V30.4h7.4v-6c0-4.5,0.8-7.9,2.5-10.1c1.7-2.2,4.8-3.3,9.4-3.3h10.1v10.1h-7
		c-1.8,0-2.9,0.3-3.3,0.9c-0.5,0.6-0.7,1.7-0.7,3.2v5.1h11.1l-1,10.1h-10V70h17.4c0.8,0,1.5-0.3,2.2-1c0.6-0.6,1-1.4,1-2.2V3.1
		C70,2.3,69.7,1.6,69,1z"/>
</g>
</svg>
